<mxfile host="app.diagrams.net" modified="2024-04-04T03:00:02.558Z" agent="Mozilla/5.0 (Windows NT 10.0; Win64; x64) AppleWebKit/537.36 (KHTML, like Gecko) Chrome/123.0.0.0 Safari/537.36" etag="rkvgz1lsqsR53qZFXECm" version="24.2.1" type="github">
  <diagram name="Page-1" id="c7488fd3-1785-93aa-aadb-54a6760d102a">
    <mxGraphModel dx="1461" dy="634" grid="1" gridSize="10" guides="1" tooltips="1" connect="1" arrows="1" fold="1" page="1" pageScale="1" pageWidth="1100" pageHeight="850" background="none" math="0" shadow="0">
      <root>
        <mxCell id="0" />
        <mxCell id="1" parent="0" />
        <mxCell id="_XiP4eHcgh9gASNTf4IM-6" style="edgeStyle=orthogonalEdgeStyle;rounded=0;orthogonalLoop=1;jettySize=auto;html=1;exitX=1;exitY=0.5;exitDx=0;exitDy=0;entryX=0;entryY=0.5;entryDx=0;entryDy=0;" parent="1" source="_XiP4eHcgh9gASNTf4IM-2" target="_XiP4eHcgh9gASNTf4IM-5" edge="1">
          <mxGeometry relative="1" as="geometry" />
        </mxCell>
        <mxCell id="_XiP4eHcgh9gASNTf4IM-2" value="register.php" style="rounded=0;whiteSpace=wrap;html=1;" parent="1" vertex="1">
          <mxGeometry x="280" y="40" width="120" height="60" as="geometry" />
        </mxCell>
        <mxCell id="_XiP4eHcgh9gASNTf4IM-4" style="edgeStyle=orthogonalEdgeStyle;rounded=0;orthogonalLoop=1;jettySize=auto;html=1;exitX=1;exitY=0.5;exitDx=0;exitDy=0;entryX=0;entryY=0.5;entryDx=0;entryDy=0;" parent="1" source="_XiP4eHcgh9gASNTf4IM-3" target="_XiP4eHcgh9gASNTf4IM-2" edge="1">
          <mxGeometry relative="1" as="geometry" />
        </mxCell>
        <mxCell id="_XiP4eHcgh9gASNTf4IM-8" value="No" style="edgeLabel;html=1;align=center;verticalAlign=middle;resizable=0;points=[];" parent="_XiP4eHcgh9gASNTf4IM-4" vertex="1" connectable="0">
          <mxGeometry x="-0.075" y="4" relative="1" as="geometry">
            <mxPoint as="offset" />
          </mxGeometry>
        </mxCell>
        <mxCell id="_XiP4eHcgh9gASNTf4IM-33" style="edgeStyle=orthogonalEdgeStyle;rounded=0;orthogonalLoop=1;jettySize=auto;html=1;exitX=0.5;exitY=0;exitDx=0;exitDy=0;entryX=0.5;entryY=0;entryDx=0;entryDy=0;" parent="1" source="_XiP4eHcgh9gASNTf4IM-3" target="_XiP4eHcgh9gASNTf4IM-5" edge="1">
          <mxGeometry relative="1" as="geometry" />
        </mxCell>
        <mxCell id="_XiP4eHcgh9gASNTf4IM-34" value="Yes" style="edgeLabel;html=1;align=center;verticalAlign=middle;resizable=0;points=[];" parent="_XiP4eHcgh9gASNTf4IM-33" vertex="1" connectable="0">
          <mxGeometry x="-0.1091" y="-2" relative="1" as="geometry">
            <mxPoint x="4" y="-2" as="offset" />
          </mxGeometry>
        </mxCell>
        <mxCell id="_XiP4eHcgh9gASNTf4IM-3" value="member?" style="rounded=0;whiteSpace=wrap;html=1;" parent="1" vertex="1">
          <mxGeometry x="80" y="40" width="120" height="60" as="geometry" />
        </mxCell>
        <mxCell id="_XiP4eHcgh9gASNTf4IM-11" style="edgeStyle=orthogonalEdgeStyle;rounded=0;orthogonalLoop=1;jettySize=auto;html=1;exitX=1;exitY=0.5;exitDx=0;exitDy=0;" parent="1" source="_XiP4eHcgh9gASNTf4IM-5" target="_XiP4eHcgh9gASNTf4IM-10" edge="1">
          <mxGeometry relative="1" as="geometry" />
        </mxCell>
        <mxCell id="_XiP4eHcgh9gASNTf4IM-5" value="login.php" style="rounded=0;whiteSpace=wrap;html=1;" parent="1" vertex="1">
          <mxGeometry x="480" y="40" width="120" height="60" as="geometry" />
        </mxCell>
        <mxCell id="_XiP4eHcgh9gASNTf4IM-16" value="" style="edgeStyle=orthogonalEdgeStyle;rounded=0;orthogonalLoop=1;jettySize=auto;html=1;" parent="1" source="_XiP4eHcgh9gASNTf4IM-10" target="_XiP4eHcgh9gASNTf4IM-15" edge="1">
          <mxGeometry relative="1" as="geometry" />
        </mxCell>
        <mxCell id="C7W-wWHVmupC5YzQ7eQh-5" value="Logout&lt;div&gt;button&lt;/div&gt;" style="edgeLabel;html=1;align=center;verticalAlign=middle;resizable=0;points=[];" vertex="1" connectable="0" parent="_XiP4eHcgh9gASNTf4IM-16">
          <mxGeometry x="0.05" y="-1" relative="1" as="geometry">
            <mxPoint y="-19" as="offset" />
          </mxGeometry>
        </mxCell>
        <mxCell id="_XiP4eHcgh9gASNTf4IM-20" style="edgeStyle=orthogonalEdgeStyle;rounded=0;orthogonalLoop=1;jettySize=auto;html=1;exitX=1;exitY=0.5;exitDx=0;exitDy=0;" parent="1" source="_XiP4eHcgh9gASNTf4IM-10" target="_XiP4eHcgh9gASNTf4IM-14" edge="1">
          <mxGeometry relative="1" as="geometry" />
        </mxCell>
        <mxCell id="_XiP4eHcgh9gASNTf4IM-22" value="" style="edgeStyle=orthogonalEdgeStyle;rounded=0;orthogonalLoop=1;jettySize=auto;html=1;" parent="1" source="_XiP4eHcgh9gASNTf4IM-10" target="_XiP4eHcgh9gASNTf4IM-21" edge="1">
          <mxGeometry relative="1" as="geometry" />
        </mxCell>
        <mxCell id="C7W-wWHVmupC5YzQ7eQh-4" value="View all invoice" style="edgeLabel;html=1;align=center;verticalAlign=middle;resizable=0;points=[];" vertex="1" connectable="0" parent="_XiP4eHcgh9gASNTf4IM-22">
          <mxGeometry x="-0.137" y="1" relative="1" as="geometry">
            <mxPoint x="39" as="offset" />
          </mxGeometry>
        </mxCell>
        <mxCell id="_XiP4eHcgh9gASNTf4IM-10" value="index.php" style="rounded=0;whiteSpace=wrap;html=1;" parent="1" vertex="1">
          <mxGeometry x="300" y="270" width="120" height="60" as="geometry" />
        </mxCell>
        <mxCell id="_XiP4eHcgh9gASNTf4IM-14" value="&lt;h1 style=&quot;margin-top: 0px;&quot;&gt;Main page&lt;/h1&gt;&lt;p&gt;user info&lt;/p&gt;&lt;p&gt;invoices overview&lt;/p&gt;" style="text;html=1;whiteSpace=wrap;overflow=hidden;rounded=0;" parent="1" vertex="1">
          <mxGeometry x="460" y="240" width="180" height="120" as="geometry" />
        </mxCell>
        <mxCell id="_XiP4eHcgh9gASNTf4IM-18" style="edgeStyle=orthogonalEdgeStyle;rounded=0;orthogonalLoop=1;jettySize=auto;html=1;exitX=0.5;exitY=0;exitDx=0;exitDy=0;entryX=0.5;entryY=1;entryDx=0;entryDy=0;" parent="1" source="_XiP4eHcgh9gASNTf4IM-15" target="_XiP4eHcgh9gASNTf4IM-5" edge="1">
          <mxGeometry relative="1" as="geometry">
            <Array as="points">
              <mxPoint x="160" y="150" />
              <mxPoint x="540" y="150" />
            </Array>
          </mxGeometry>
        </mxCell>
        <mxCell id="_XiP4eHcgh9gASNTf4IM-15" value="log out.php" style="whiteSpace=wrap;html=1;rounded=0;" parent="1" vertex="1">
          <mxGeometry x="100" y="270" width="120" height="60" as="geometry" />
        </mxCell>
        <mxCell id="_XiP4eHcgh9gASNTf4IM-27" style="edgeStyle=orthogonalEdgeStyle;rounded=0;orthogonalLoop=1;jettySize=auto;html=1;exitX=0.25;exitY=1;exitDx=0;exitDy=0;entryX=0.25;entryY=0;entryDx=0;entryDy=0;" parent="1" source="_XiP4eHcgh9gASNTf4IM-21" target="_XiP4eHcgh9gASNTf4IM-26" edge="1">
          <mxGeometry relative="1" as="geometry">
            <Array as="points">
              <mxPoint x="330" y="620" />
              <mxPoint x="330" y="620" />
            </Array>
          </mxGeometry>
        </mxCell>
        <mxCell id="C7W-wWHVmupC5YzQ7eQh-2" style="edgeStyle=orthogonalEdgeStyle;rounded=0;orthogonalLoop=1;jettySize=auto;html=1;exitX=1;exitY=0.75;exitDx=0;exitDy=0;entryX=0;entryY=0.75;entryDx=0;entryDy=0;" edge="1" parent="1" source="_XiP4eHcgh9gASNTf4IM-21" target="C7W-wWHVmupC5YzQ7eQh-1">
          <mxGeometry relative="1" as="geometry" />
        </mxCell>
        <mxCell id="_XiP4eHcgh9gASNTf4IM-21" value="invoice.php" style="whiteSpace=wrap;html=1;rounded=0;" parent="1" vertex="1">
          <mxGeometry x="300" y="440" width="120" height="60" as="geometry" />
        </mxCell>
        <mxCell id="_XiP4eHcgh9gASNTf4IM-23" value="connection.php" style="rounded=0;whiteSpace=wrap;html=1;" parent="1" vertex="1">
          <mxGeometry x="700" y="40" width="120" height="60" as="geometry" />
        </mxCell>
        <mxCell id="_XiP4eHcgh9gASNTf4IM-24" value="config.php" style="rounded=0;whiteSpace=wrap;html=1;" parent="1" vertex="1">
          <mxGeometry x="700" y="160" width="120" height="60" as="geometry" />
        </mxCell>
        <mxCell id="_XiP4eHcgh9gASNTf4IM-25" value="paid_invoice.php" style="rounded=0;whiteSpace=wrap;html=1;" parent="1" vertex="1">
          <mxGeometry x="120" y="410" width="120" height="60" as="geometry" />
        </mxCell>
        <mxCell id="_XiP4eHcgh9gASNTf4IM-28" style="edgeStyle=orthogonalEdgeStyle;rounded=0;orthogonalLoop=1;jettySize=auto;html=1;exitX=0.75;exitY=0;exitDx=0;exitDy=0;entryX=0.75;entryY=1;entryDx=0;entryDy=0;" parent="1" source="_XiP4eHcgh9gASNTf4IM-26" target="_XiP4eHcgh9gASNTf4IM-21" edge="1">
          <mxGeometry relative="1" as="geometry" />
        </mxCell>
        <mxCell id="_XiP4eHcgh9gASNTf4IM-26" value="delete.php" style="rounded=0;whiteSpace=wrap;html=1;" parent="1" vertex="1">
          <mxGeometry x="300" y="540" width="120" height="60" as="geometry" />
        </mxCell>
        <mxCell id="_XiP4eHcgh9gASNTf4IM-29" value="" style="endArrow=none;dashed=1;html=1;dashPattern=1 3;strokeWidth=2;rounded=0;exitX=0.45;exitY=-0.017;exitDx=0;exitDy=0;exitPerimeter=0;entryX=0.125;entryY=1;entryDx=0;entryDy=0;entryPerimeter=0;" parent="1" source="_XiP4eHcgh9gASNTf4IM-25" target="_XiP4eHcgh9gASNTf4IM-10" edge="1">
          <mxGeometry width="50" height="50" relative="1" as="geometry">
            <mxPoint x="290" y="470" as="sourcePoint" />
            <mxPoint x="340" y="420" as="targetPoint" />
          </mxGeometry>
        </mxCell>
        <mxCell id="_XiP4eHcgh9gASNTf4IM-30" value="info&lt;div&gt;&lt;br&gt;&lt;/div&gt;" style="edgeLabel;html=1;align=center;verticalAlign=middle;resizable=0;points=[];" parent="_XiP4eHcgh9gASNTf4IM-29" vertex="1" connectable="0">
          <mxGeometry x="-0.1486" y="-3" relative="1" as="geometry">
            <mxPoint x="1" as="offset" />
          </mxGeometry>
        </mxCell>
        <mxCell id="_XiP4eHcgh9gASNTf4IM-31" value="&lt;h1 style=&quot;margin-top: 0px;&quot;&gt;config.php&lt;/h1&gt;&lt;p&gt;store databases info&lt;/p&gt;&lt;p&gt;such as username, password&lt;/p&gt;" style="text;html=1;whiteSpace=wrap;overflow=hidden;rounded=0;" parent="1" vertex="1">
          <mxGeometry x="880" y="160" width="180" height="120" as="geometry" />
        </mxCell>
        <mxCell id="_XiP4eHcgh9gASNTf4IM-32" value="&lt;h1 style=&quot;margin-top: 0px;&quot;&gt;connection.php&lt;/h1&gt;&lt;p&gt;a single file to determine if connected&lt;/p&gt;" style="text;html=1;whiteSpace=wrap;overflow=hidden;rounded=0;" parent="1" vertex="1">
          <mxGeometry x="880" y="30" width="180" height="120" as="geometry" />
        </mxCell>
        <mxCell id="C7W-wWHVmupC5YzQ7eQh-3" style="edgeStyle=orthogonalEdgeStyle;rounded=0;orthogonalLoop=1;jettySize=auto;html=1;exitX=0;exitY=0.25;exitDx=0;exitDy=0;entryX=1;entryY=0.25;entryDx=0;entryDy=0;" edge="1" parent="1" source="C7W-wWHVmupC5YzQ7eQh-1" target="_XiP4eHcgh9gASNTf4IM-21">
          <mxGeometry relative="1" as="geometry" />
        </mxCell>
        <mxCell id="C7W-wWHVmupC5YzQ7eQh-1" value="create_invoice.php" style="rounded=0;whiteSpace=wrap;html=1;" vertex="1" parent="1">
          <mxGeometry x="500" y="440" width="120" height="60" as="geometry" />
        </mxCell>
      </root>
    </mxGraphModel>
  </diagram>
</mxfile>
